# xmcd CD database file
#
# Track frame offsets:
#	150
#	13895
#	30461
#	46822
#	69306
#	81494
#	96054
#	110971
#	125319
#	140134
#
# Disc length: 2145 seconds
#
# Revision: 0
# Processed by: cddbd v1.5.1PL0 Copyright (c) Steve Scherf et al.
# Submitted via: CDex 1.40Release
#
DISCID=89085f0a
DTITLE=Seth Walker - When It Rains It Pours
DYEAR=1997
DGENRE=Blues
TTITLE0=She's Fine
TTITLE1=Sometimes I Wonder
TTITLE2=Next to You
TTITLE3=Terra Lea
TTITLE4=Tiny's Tempo
TTITLE5=Long Distance Love
TTITLE6=Too Bad
TTITLE7=So Low Down
TTITLE8=Baby Don't You Do It
TTITLE9=When It Rains It Pours
EXTD=YEAR: 1997 ID3G: 0
EXTT0=
EXTT1=
EXTT2=
EXTT3=
EXTT4=
EXTT5=
EXTT6=
EXTT7=
EXTT8=
EXTT9=
PLAYORDER=
